<mxfile host="Electron" agent="Mozilla/5.0 (Macintosh; Intel Mac OS X 10_15_7) AppleWebKit/537.36 (KHTML, like Gecko) draw.io/27.0.9 Chrome/134.0.6998.205 Electron/35.4.0 Safari/537.36" version="27.0.9">
  <diagram name="Seite-1" id="5xuU70SFgvKVSX3ltEnL">
    <mxGraphModel dx="706" dy="604" grid="1" gridSize="10" guides="1" tooltips="1" connect="1" arrows="1" fold="1" page="1" pageScale="1" pageWidth="827" pageHeight="1169" math="0" shadow="0">
      <root>
        <mxCell id="0" />
        <mxCell id="1" parent="0" />
        <mxCell id="v3S-uZtnCWiEohaT9QNz-5" style="edgeStyle=orthogonalEdgeStyle;rounded=0;orthogonalLoop=1;jettySize=auto;html=1;exitX=1;exitY=0.25;exitDx=0;exitDy=0;" edge="1" parent="1" source="v3S-uZtnCWiEohaT9QNz-1" target="v3S-uZtnCWiEohaT9QNz-3">
          <mxGeometry relative="1" as="geometry" />
        </mxCell>
        <mxCell id="v3S-uZtnCWiEohaT9QNz-7" value="pulls" style="edgeLabel;html=1;align=center;verticalAlign=middle;resizable=0;points=[];" vertex="1" connectable="0" parent="v3S-uZtnCWiEohaT9QNz-5">
          <mxGeometry x="-0.0308" y="4" relative="1" as="geometry">
            <mxPoint x="-14" as="offset" />
          </mxGeometry>
        </mxCell>
        <mxCell id="v3S-uZtnCWiEohaT9QNz-6" style="edgeStyle=orthogonalEdgeStyle;rounded=0;orthogonalLoop=1;jettySize=auto;html=1;exitX=1;exitY=0.75;exitDx=0;exitDy=0;entryX=0;entryY=0.5;entryDx=0;entryDy=0;" edge="1" parent="1" source="v3S-uZtnCWiEohaT9QNz-1" target="v3S-uZtnCWiEohaT9QNz-4">
          <mxGeometry relative="1" as="geometry" />
        </mxCell>
        <mxCell id="v3S-uZtnCWiEohaT9QNz-9" value="checks" style="edgeLabel;html=1;align=center;verticalAlign=middle;resizable=0;points=[];" vertex="1" connectable="0" parent="v3S-uZtnCWiEohaT9QNz-6">
          <mxGeometry x="0.0298" y="1" relative="1" as="geometry">
            <mxPoint as="offset" />
          </mxGeometry>
        </mxCell>
        <mxCell id="v3S-uZtnCWiEohaT9QNz-14" style="edgeStyle=orthogonalEdgeStyle;rounded=0;orthogonalLoop=1;jettySize=auto;html=1;entryX=0;entryY=0.5;entryDx=0;entryDy=0;exitX=1;exitY=1;exitDx=0;exitDy=0;" edge="1" parent="1" source="v3S-uZtnCWiEohaT9QNz-1" target="v3S-uZtnCWiEohaT9QNz-12">
          <mxGeometry relative="1" as="geometry" />
        </mxCell>
        <mxCell id="v3S-uZtnCWiEohaT9QNz-15" value="uses" style="edgeLabel;html=1;align=center;verticalAlign=middle;resizable=0;points=[];" vertex="1" connectable="0" parent="v3S-uZtnCWiEohaT9QNz-14">
          <mxGeometry x="-0.3879" y="-1" relative="1" as="geometry">
            <mxPoint as="offset" />
          </mxGeometry>
        </mxCell>
        <mxCell id="v3S-uZtnCWiEohaT9QNz-17" style="edgeStyle=orthogonalEdgeStyle;rounded=0;orthogonalLoop=1;jettySize=auto;html=1;entryX=0;entryY=0.5;entryDx=0;entryDy=0;exitX=0.85;exitY=1.017;exitDx=0;exitDy=0;exitPerimeter=0;" edge="1" parent="1" source="v3S-uZtnCWiEohaT9QNz-1" target="v3S-uZtnCWiEohaT9QNz-16">
          <mxGeometry relative="1" as="geometry" />
        </mxCell>
        <mxCell id="v3S-uZtnCWiEohaT9QNz-18" value="checks" style="edgeLabel;html=1;align=center;verticalAlign=middle;resizable=0;points=[];" vertex="1" connectable="0" parent="v3S-uZtnCWiEohaT9QNz-17">
          <mxGeometry x="-0.4006" y="3" relative="1" as="geometry">
            <mxPoint x="-5" as="offset" />
          </mxGeometry>
        </mxCell>
        <mxCell id="v3S-uZtnCWiEohaT9QNz-20" style="edgeStyle=orthogonalEdgeStyle;rounded=0;orthogonalLoop=1;jettySize=auto;html=1;" edge="1" parent="1" source="v3S-uZtnCWiEohaT9QNz-1" target="v3S-uZtnCWiEohaT9QNz-19">
          <mxGeometry relative="1" as="geometry" />
        </mxCell>
        <mxCell id="v3S-uZtnCWiEohaT9QNz-21" value="uses" style="edgeLabel;html=1;align=center;verticalAlign=middle;resizable=0;points=[];" vertex="1" connectable="0" parent="v3S-uZtnCWiEohaT9QNz-20">
          <mxGeometry x="0.0071" y="-1" relative="1" as="geometry">
            <mxPoint as="offset" />
          </mxGeometry>
        </mxCell>
        <mxCell id="v3S-uZtnCWiEohaT9QNz-1" value="THRRoomfinder" style="rounded=0;whiteSpace=wrap;html=1;fillColor=#647687;fontColor=#ffffff;strokeColor=#314354;" vertex="1" parent="1">
          <mxGeometry x="310" y="280" width="120" height="60" as="geometry" />
        </mxCell>
        <mxCell id="v3S-uZtnCWiEohaT9QNz-10" style="edgeStyle=orthogonalEdgeStyle;rounded=0;orthogonalLoop=1;jettySize=auto;html=1;entryX=0;entryY=0.5;entryDx=0;entryDy=0;" edge="1" parent="1" source="v3S-uZtnCWiEohaT9QNz-2" target="v3S-uZtnCWiEohaT9QNz-1">
          <mxGeometry relative="1" as="geometry" />
        </mxCell>
        <mxCell id="v3S-uZtnCWiEohaT9QNz-11" value="accesses" style="edgeLabel;html=1;align=center;verticalAlign=middle;resizable=0;points=[];" vertex="1" connectable="0" parent="v3S-uZtnCWiEohaT9QNz-10">
          <mxGeometry x="-0.0114" y="-2" relative="1" as="geometry">
            <mxPoint as="offset" />
          </mxGeometry>
        </mxCell>
        <mxCell id="v3S-uZtnCWiEohaT9QNz-2" value="User" style="shape=umlActor;verticalLabelPosition=bottom;verticalAlign=top;html=1;outlineConnect=0;" vertex="1" parent="1">
          <mxGeometry x="70" y="140" width="30" height="60" as="geometry" />
        </mxCell>
        <mxCell id="v3S-uZtnCWiEohaT9QNz-3" value="Open Street Map" style="rounded=1;whiteSpace=wrap;html=1;" vertex="1" parent="1">
          <mxGeometry x="560" y="170" width="120" height="60" as="geometry" />
        </mxCell>
        <mxCell id="v3S-uZtnCWiEohaT9QNz-4" value="SPlan" style="rounded=1;whiteSpace=wrap;html=1;" vertex="1" parent="1">
          <mxGeometry x="560" y="340" width="120" height="60" as="geometry" />
        </mxCell>
        <mxCell id="v3S-uZtnCWiEohaT9QNz-12" value="MapTiler" style="rounded=1;whiteSpace=wrap;html=1;" vertex="1" parent="1">
          <mxGeometry x="560" y="440" width="120" height="60" as="geometry" />
        </mxCell>
        <mxCell id="v3S-uZtnCWiEohaT9QNz-16" value="Indoor Control" style="rounded=1;whiteSpace=wrap;html=1;" vertex="1" parent="1">
          <mxGeometry x="560" y="540" width="120" height="60" as="geometry" />
        </mxCell>
        <mxCell id="v3S-uZtnCWiEohaT9QNz-19" value="Firebase" style="rounded=1;whiteSpace=wrap;html=1;" vertex="1" parent="1">
          <mxGeometry x="310" y="585" width="120" height="60" as="geometry" />
        </mxCell>
      </root>
    </mxGraphModel>
  </diagram>
</mxfile>
